<svg viewBox="515 323.8774 234.443 90.223" width="5000" height="1924.1990590463352" xmlns="http://www.w3.org/2000/svg" xmlns:xlink="http://www.w3.org/1999/xlink" preserveAspectRatio="none"><defs></defs><style>.aa1QxcCk4-Scolors-0 {fill:#FFFFFF;fill-opacity:1;}.aa2SnWePlI-YfillColor {fill:#E9E9E9;fill-opacity:1;}.aa2SnWePlI-YstrokeColor-str {stroke:#FFCC57;stroke-opacity:1;}.aD6z1nYkhcolor {fill:#5D5C5C;fill-opacity:1;}.aFIEBR11Fh5fillColor {fill:#0597EF;fill-opacity:1;}.aFIEBR11Fh5strokeColor-str {stroke:#FFCC57;stroke-opacity:1;}.aLQwiliU0y9fillColor {fill:#FB0D00;fill-opacity:1;}.aLQwiliU0y9strokeColor-str {stroke:#FFCC57;stroke-opacity:1;}.aRMlbTD6QMYfillColor {fill:#5D5C5C;fill-opacity:1;}.aRMlbTD6QMYstrokeColor-str {stroke:#FFCC57;stroke-opacity:1;}.icon1 {fill:#FFCC57;fill-opacity:1;}.icon2 {fill:#EF802F;fill-opacity:1;}.icon3 {fill:#DB5192;fill-opacity:1;}.icon3-str {stroke:#DB5192;stroke-opacity:1;}.icon4 {fill:#161616;fill-opacity:1;}.icon5 {fill:#F7F7F7;fill-opacity:1;}.icon6 {fill:#EDF577;fill-opacity:1;}.icon7 {fill:#C4C4C4;fill-opacity:1;}.icon8 {fill:#555555;fill-opacity:1;}.shapeStroke-str {stroke:#FFCC57;stroke-opacity:1;}</style><g opacity="1" transform="rotate(0 515 364.6938)">
<svg width="234.443" height="49.4066" x="515" y="364.6938" version="1.1" preserveAspectRatio="none" viewBox="2.1094 -20.1562 134.5703 28.359299999999998">
  <g transform="matrix(1 0 0 1 0 0)" class="aD6z1nYkhcolor"><path id="id-D6z1nYkh10" d="M4.84-5.43L4.84-5.43Q4.57-5.23 4.45-5.23L4.45-5.23Q4.49-4.06 4.59-3.05Q4.69-2.03 4.69-1.17L4.69-1.17Q4.69-0.39 4.36-0.04Q4.02 0.31 3.59 0.31L3.59 0.31Q3.24 0.31 2.95 0Q2.66-0.31 2.58-0.98L2.58-0.98Q2.30-3.20 2.21-5.98Q2.11-8.75 2.11-11.56L2.11-11.56Q2.11-13.63 2.19-15.53Q2.27-17.42 2.42-19.02L2.42-19.02Q2.54-20.16 3.44-20.16L3.44-20.16Q3.91-20.16 4.30-19.77Q4.69-19.38 4.69-18.71L4.69-18.71L4.69-18.48Q4.49-16.99 4.43-14.86Q4.38-12.73 4.38-10.39L4.38-10.39L4.38-8.05Q5.31-9.06 6.41-10.59Q7.50-12.11 8.52-13.71Q9.53-15.31 10.35-16.80Q11.17-18.28 11.56-19.26L11.56-19.26Q11.76-19.69 12.05-19.88Q12.34-20.08 12.66-20.08L12.66-20.08Q13.01-20.08 13.30-19.80Q13.59-19.53 13.59-18.98L13.59-18.98Q13.59-18.71 13.18-17.79Q12.77-16.88 12.07-15.59Q11.37-14.30 10.47-12.79Q9.57-11.29 8.59-9.88Q7.62-8.48 6.64-7.29Q5.66-6.09 4.84-5.43ZM14.22-0.82L14.22-0.82Q12.81-1.80 11.46-3.01Q10.12-4.22 8.83-5.74L8.83-5.74Q8.36-6.25 8.36-6.76L8.36-6.76Q8.36-7.19 8.69-7.48Q9.02-7.77 9.45-7.77L9.45-7.77Q9.77-7.77 10.20-7.40Q10.63-7.03 11.07-6.54Q11.52-6.05 11.95-5.53Q12.38-5 12.70-4.73L12.70-4.73Q12.97-4.49 13.52-4.10Q14.06-3.71 14.63-3.26Q15.20-2.81 15.63-2.38Q16.05-1.95 16.05-1.64L16.05-1.64Q16.05-1.21 15.74-0.88Q15.43-0.55 15-0.55L15-0.55Q14.61-0.55 14.22-0.82Z M19.22-1.37L19.22-1.37Q19.41-2.70 19.51-3.93Q19.61-5.16 19.61-6.37L19.61-6.37Q19.61-8.75 19.14-11.29L19.14-11.29Q19.10-11.41 19.10-11.60L19.10-11.60Q19.10-12.15 19.43-12.50Q19.77-12.85 20.23-12.85L20.23-12.85Q20.74-12.85 21.00-12.50Q21.25-12.15 21.37-11.62Q21.48-11.09 21.54-10.49Q21.60-9.88 21.72-9.34L21.72-9.34Q22.23-9.84 23.01-10.31Q23.79-10.78 24.67-11.13Q25.55-11.48 26.45-11.70Q27.34-11.91 28.13-11.91L28.13-11.91Q28.55-11.91 28.87-11.56Q29.18-11.21 29.18-10.78L29.18-10.78Q29.18-10.39 28.95-10.02Q28.71-9.65 28.20-9.65L28.20-9.65Q27.27-9.65 26.25-9.32Q25.23-8.98 24.36-8.48Q23.48-7.97 22.83-7.34Q22.19-6.72 21.95-6.13L21.95-6.13Q21.88-5.35 21.86-4.28Q21.84-3.20 21.70-2.25Q21.56-1.29 21.25-0.63Q20.94 0.04 20.31 0.04L20.31 0.04Q19.92 0.04 19.55-0.23Q19.18-0.51 19.18-1.09L19.18-1.09Q19.18-1.25 19.22-1.37Z M35-11.41L35-11.13Q34.92-10.23 34.86-9.26Q34.80-8.28 34.80-7.27L34.80-7.27Q34.80-5.82 34.94-4.38Q35.08-2.93 35.08-1.56L35.08-1.56Q35.08-0.78 34.71-0.39Q34.34 0 33.91 0L33.91 0Q33.52 0 33.26-0.29Q33.01-0.59 32.97-1.21L32.97-1.21Q32.85-2.97 32.75-4.43Q32.66-5.90 32.66-7.38L32.66-7.38Q32.66-7.97 32.64-8.89Q32.62-9.80 32.71-10.64Q32.81-11.48 33.11-12.09Q33.40-12.70 34.02-12.70L34.02-12.70Q34.41-12.70 34.71-12.34Q35-11.99 35-11.41L35-11.41ZM33.13-20.04L33.13-20.04Q33.28-20.12 33.40-20.12L33.40-20.12Q33.55-20.12 33.69-20.08Q33.83-20.04 33.91-20.04L33.91-20.04Q34.10-20.08 34.26-20.10Q34.41-20.12 34.61-20.12L34.61-20.12Q35.90-20.12 36.54-19.26Q37.19-18.40 37.19-17.42L37.19-17.42Q37.19-16.95 36.97-16.41Q36.76-15.86 36.35-15.41Q35.94-14.96 35.31-14.65Q34.69-14.34 33.87-14.34L33.87-14.34Q33.32-14.34 32.85-14.61Q32.38-14.88 32.03-15.29Q31.68-15.70 31.48-16.23Q31.29-16.76 31.29-17.27L31.29-17.27Q31.29-18.05 31.82-18.91Q32.34-19.77 33.13-20.04ZM34.06-18.01L34.06-18.01L33.75-18.01Q33.55-17.93 33.48-17.73Q33.40-17.54 33.40-17.34L33.40-17.34Q33.40-16.99 33.67-16.70Q33.95-16.41 34.18-16.41L34.18-16.41Q34.77-16.41 34.96-16.78Q35.16-17.15 35.16-17.46L35.16-17.46Q34.96-18.09 34.38-18.09L34.38-18.09Q34.30-18.09 34.06-18.01Z M42.42-9.80L42.42-9.65Q42.11-8.52 42.11-7.70L42.11-7.70Q42.11-6.64 42.52-5.78Q42.93-4.92 43.65-4.34Q44.38-3.75 45.35-3.44Q46.33-3.13 47.42-3.13L47.42-3.13Q47.54-3.13 47.66-3.14Q47.77-3.16 47.89-3.16L47.89-3.16Q48.20-3.16 48.50-2.83Q48.79-2.50 48.79-2.07L48.79-2.07Q48.79-1.52 48.50-1.25Q48.20-0.98 47.34-0.98L47.34-0.98Q45.31-0.98 43.91-1.56Q42.50-2.15 41.60-3.14Q40.70-4.14 40.29-5.41Q39.88-6.68 39.88-8.05L39.88-8.05Q39.88-8.44 39.90-8.93Q39.92-9.41 40.04-9.82Q40.16-10.23 40.41-10.53Q40.66-10.82 41.13-10.82L41.13-10.82Q41.52-10.82 41.97-10.57Q42.42-10.31 42.42-9.80L42.42-9.80ZM51.56-10.98L51.56-10.98Q51.76-8.83 51.86-6.84Q51.95-4.84 51.95-2.85L51.95-2.85Q51.95-1.72 51.95-0.64Q51.95 0.43 51.72 1.48Q51.48 2.54 50.86 3.57Q50.23 4.61 48.98 5.63L48.98 5.63Q48.44 6.05 47.75 6.52Q47.07 6.99 46.33 7.36Q45.59 7.73 44.84 7.97Q44.10 8.20 43.44 8.20L43.44 8.20Q42.97 8.20 42.68 7.77Q42.38 7.34 42.38 6.84L42.38 6.84Q42.38 6.48 42.56 6.19Q42.73 5.90 43.13 5.82L43.13 5.82Q44.18 5.55 45.29 5Q46.41 4.45 47.32 3.71Q48.24 2.97 48.87 2.09Q49.49 1.21 49.61 0.27L49.61 0.27Q49.73-0.78 49.73-2.11L49.73-2.11Q49.69-2.85 49.69-3.65Q49.69-4.45 49.61-5.23L49.61-5.23L49.22-10.98Q49.22-11.05 49.20-11.07Q49.18-11.09 49.18-11.17L49.18-11.17Q49.18-11.64 49.51-11.93Q49.84-12.23 50.27-12.23L50.27-12.23Q50.70-12.23 51.09-11.93Q51.48-11.64 51.56-10.98Z M60.16-10.51L60.16-10.51L59.14-10.51Q58.48-10.16 58.13-9.57Q57.77-8.98 57.60-8.34Q57.42-7.70 57.38-7.11Q57.34-6.52 57.34-6.17L57.34-6.17Q57.34-5.39 57.56-4.69Q57.77-3.98 58.18-3.46Q58.59-2.93 59.14-2.62Q59.69-2.30 60.39-2.30L60.39-2.30Q61.64-2.30 62.32-2.85Q63.01-3.40 63.34-4.22Q63.67-5.04 63.75-6.00Q63.83-6.95 63.83-7.77L63.83-7.77Q63.75-8.28 63.48-8.81Q63.20-9.34 62.79-9.73Q62.38-10.12 61.89-10.37Q61.41-10.63 60.90-10.63L60.90-10.63Q60.51-10.63 60.16-10.51ZM65.47-3.71L65.47-3.71Q65.04-1.91 63.55-0.98Q62.07-0.04 60.27-0.04L60.27-0.04Q58.98-0.04 57.99-0.61Q56.99-1.17 56.33-2.09Q55.66-3.01 55.33-4.16Q55-5.31 55-6.48L55-6.48Q55-7.42 55.23-8.54Q55.47-9.65 55.98-10.59Q56.48-11.52 57.30-12.17Q58.13-12.81 59.30-12.81L59.30-12.81Q59.92-12.81 60.16-12.70L60.16-12.70Q60.35-12.73 60.51-12.73Q60.66-12.73 60.86-12.73L60.86-12.73Q62.70-12.73 63.75-11.95Q64.80-11.17 65.45-9.94Q66.09-8.71 66.48-7.23Q66.88-5.74 67.42-4.38L67.42-4.38Q67.58-3.91 67.89-3.34Q68.20-2.77 68.52-2.23Q68.83-1.68 69.04-1.25Q69.26-0.82 69.26-0.59L69.26-0.59Q69.26-0.16 68.95 0.08Q68.63 0.31 68.24 0.31L68.24 0.31Q67.85 0.31 67.44-0.02Q67.03-0.35 66.66-0.90Q66.29-1.45 65.98-2.19Q65.66-2.93 65.47-3.71Z M81.88-1.91L81.88-1.91Q82.54-1.91 82.85-1.62Q83.16-1.33 83.16-0.86L83.16-0.86Q83.16-0.35 82.91-0.10Q82.66 0.16 82.29 0.27Q81.91 0.39 81.46 0.39Q81.02 0.39 80.66 0.39L80.66 0.39Q79.02 0.39 77.40-0.02Q75.78-0.43 74.49-1.25Q73.20-2.07 72.38-3.28Q71.56-4.49 71.56-6.05L71.56-6.05Q71.56-7.73 72.48-8.96Q73.40-10.20 74.77-11.02Q76.13-11.84 77.70-12.23Q79.26-12.62 80.59-12.62L80.59-12.62Q81.25-12.62 81.93-12.46Q82.62-12.30 83.16-11.91Q83.71-11.52 84.06-10.86Q84.41-10.20 84.41-9.18L84.41-9.18Q84.41-7.97 83.63-7.11Q82.85-6.25 81.76-5.66Q80.66-5.08 79.45-4.80Q78.24-4.53 77.42-4.49L77.42-4.49Q76.99-4.49 76.78-4.82Q76.56-5.16 76.56-5.59L76.56-5.59Q76.56-5.94 76.76-6.31Q76.95-6.68 77.42-6.68L77.42-6.68Q78.16-6.68 79.00-6.84Q79.84-6.99 80.57-7.32Q81.29-7.66 81.76-8.16Q82.23-8.67 82.23-9.38L82.23-9.38Q82.23-10.43 80.63-10.43L80.63-10.43Q79.57-10.43 78.40-10.14Q77.23-9.84 76.25-9.26Q75.27-8.67 74.63-7.79Q73.98-6.91 73.98-5.74L73.98-5.74Q73.98-4.84 74.55-4.14Q75.12-3.44 76.04-2.91Q76.95-2.38 78.14-2.11Q79.34-1.84 80.63-1.84L80.63-1.84Q80.94-1.84 81.25-1.86Q81.56-1.88 81.88-1.91Z M97.27-0.04L97.27-0.04Q93.44-0.35 91.64-2.58Q89.84-4.80 89.84-8.95L89.84-8.95L89.84-10.59Q88.32-10.59 87.30-10.88Q86.29-11.17 86.29-12.15L86.29-12.15Q86.37-12.50 86.64-12.75Q86.91-13.01 87.42-13.01L87.42-13.01Q87.89-13.01 88.55-12.89Q89.22-12.77 90-12.77L90-12.77Q90-14.02 90.08-15.33Q90.16-16.64 90.37-17.70Q90.59-18.75 90.94-19.43Q91.29-20.12 91.88-20.12L91.88-20.12Q92.30-20.12 92.66-19.75Q93.01-19.38 93.01-18.75L93.01-18.75Q93.01-17.77 92.77-16.13Q92.54-14.49 92.42-12.70L92.42-12.70Q92.73-12.66 93.07-12.64Q93.40-12.62 93.75-12.62L93.75-12.62Q94.38-12.62 95.02-12.66Q95.66-12.70 96.33-12.77L96.33-12.77Q96.88-12.77 97.23-12.46Q97.58-12.15 97.58-11.76L97.58-11.76Q97.58-11.21 97.27-10.96Q96.95-10.70 96.46-10.61Q95.98-10.51 95.33-10.51Q94.69-10.51 94.06-10.51L94.06-10.51L92.27-10.51Q92.23-10.08 92.23-9.69Q92.23-9.30 92.23-8.91L92.23-8.91Q92.23-7.50 92.48-6.39Q92.73-5.27 93.36-4.41Q93.98-3.55 95-3.01Q96.02-2.46 97.50-2.23L97.50-2.23Q97.93-2.15 98.13-1.88Q98.32-1.60 98.32-1.25L98.32-1.25Q98.32-0.78 98.07-0.41Q97.81-0.04 97.27-0.04Z M103.83-11.41L103.83-11.13Q103.75-10.23 103.69-9.26Q103.63-8.28 103.63-7.27L103.63-7.27Q103.63-5.82 103.77-4.38Q103.91-2.93 103.91-1.56L103.91-1.56Q103.91-0.78 103.54-0.39Q103.16 0 102.73 0L102.73 0Q102.34 0 102.09-0.29Q101.84-0.59 101.80-1.21L101.80-1.21Q101.68-2.97 101.58-4.43Q101.48-5.90 101.48-7.38L101.48-7.38Q101.48-7.97 101.46-8.89Q101.45-9.80 101.54-10.64Q101.64-11.48 101.93-12.09Q102.23-12.70 102.85-12.70L102.85-12.70Q103.24-12.70 103.54-12.34Q103.83-11.99 103.83-11.41L103.83-11.41ZM101.95-20.04L101.95-20.04Q102.11-20.12 102.23-20.12L102.23-20.12Q102.38-20.12 102.52-20.08Q102.66-20.04 102.73-20.04L102.73-20.04Q102.93-20.08 103.09-20.10Q103.24-20.12 103.44-20.12L103.44-20.12Q104.73-20.12 105.37-19.26Q106.02-18.40 106.02-17.42L106.02-17.42Q106.02-16.95 105.80-16.41Q105.59-15.86 105.18-15.41Q104.77-14.96 104.14-14.65Q103.52-14.34 102.70-14.34L102.70-14.34Q102.15-14.34 101.68-14.61Q101.21-14.88 100.86-15.29Q100.51-15.70 100.31-16.23Q100.12-16.76 100.12-17.27L100.12-17.27Q100.12-18.05 100.64-18.91Q101.17-19.77 101.95-20.04ZM102.89-18.01L102.89-18.01L102.58-18.01Q102.38-17.93 102.30-17.73Q102.23-17.54 102.23-17.34L102.23-17.34Q102.23-16.99 102.50-16.70Q102.77-16.41 103.01-16.41L103.01-16.41Q103.59-16.41 103.79-16.78Q103.98-17.15 103.98-17.46L103.98-17.46Q103.79-18.09 103.20-18.09L103.20-18.09Q103.13-18.09 102.89-18.01Z M119.30-11.76L119.30-11.76Q119.41-12.23 119.71-12.44Q120-12.66 120.35-12.66L120.35-12.66Q120.78-12.66 121.11-12.34Q121.45-12.03 121.45-11.45L121.45-11.45Q121.45-11.17 121.41-11.05L121.41-11.05Q120.74-8.98 120.02-7.01Q119.30-5.04 118.55-3.52Q117.81-1.99 117.05-1.05Q116.29-0.12 115.59-0.12L115.59-0.12Q114.80-0.12 113.95-1.07Q113.09-2.03 112.23-3.63Q111.37-5.23 110.53-7.32Q109.69-9.41 108.98-11.68L108.98-11.68Q108.91-11.91 108.91-12.03L108.91-12.03Q108.91-12.50 109.32-12.83Q109.73-13.16 110.20-13.16L110.20-13.16Q110.55-13.16 110.86-12.97Q111.17-12.77 111.25-12.23L111.25-12.23Q111.60-10.98 112.21-9.39Q112.81-7.81 113.44-6.43Q114.06-5.04 114.63-4.08Q115.20-3.13 115.47-3.13L115.47-3.13Q115.70-3.13 116.19-4.00Q116.68-4.88 117.23-6.17Q117.77-7.46 118.32-8.96Q118.87-10.47 119.30-11.76Z M134.14-1.91L134.14-1.91Q134.80-1.91 135.12-1.62Q135.43-1.33 135.43-0.86L135.43-0.86Q135.43-0.35 135.18-0.10Q134.92 0.16 134.55 0.27Q134.18 0.39 133.73 0.39Q133.28 0.39 132.93 0.39L132.93 0.39Q131.29 0.39 129.67-0.02Q128.05-0.43 126.76-1.25Q125.47-2.07 124.65-3.28Q123.83-4.49 123.83-6.05L123.83-6.05Q123.83-7.73 124.75-8.96Q125.66-10.20 127.03-11.02Q128.40-11.84 129.96-12.23Q131.52-12.62 132.85-12.62L132.85-12.62Q133.52-12.62 134.20-12.46Q134.88-12.30 135.43-11.91Q135.98-11.52 136.33-10.86Q136.68-10.20 136.68-9.18L136.68-9.18Q136.68-7.97 135.90-7.11Q135.12-6.25 134.02-5.66Q132.93-5.08 131.72-4.80Q130.51-4.53 129.69-4.49L129.69-4.49Q129.26-4.49 129.04-4.82Q128.83-5.16 128.83-5.59L128.83-5.59Q128.83-5.94 129.02-6.31Q129.22-6.68 129.69-6.68L129.69-6.68Q130.43-6.68 131.27-6.84Q132.11-6.99 132.83-7.32Q133.55-7.66 134.02-8.16Q134.49-8.67 134.49-9.38L134.49-9.38Q134.49-10.43 132.89-10.43L132.89-10.43Q131.84-10.43 130.66-10.14Q129.49-9.84 128.52-9.26Q127.54-8.67 126.89-7.79Q126.25-6.91 126.25-5.74L126.25-5.74Q126.25-4.84 126.82-4.14Q127.38-3.44 128.30-2.91Q129.22-2.38 130.41-2.11Q131.60-1.84 132.89-1.84L132.89-1.84Q133.20-1.84 133.52-1.86Q133.83-1.88 134.14-1.91Z"/></g>
</svg>
</g><g opacity="1" transform="rotate(0 515.3267 323.8774)">
<svg width="80" height="22.4491" x="515.3267" y="323.8774" version="1.1" preserveAspectRatio="none" viewBox="0 0 80 22.4491">
  <defs><rect x="0" y="0" width="80" height="22.4491" rx="0%" ry="0%" id="id-bTUYkkdP"></rect></defs><use class="icon1 shapeStroke-str" style="stroke-width:0;" xlink:href="#id-bTUYkkdP"></use>
</svg>
</g><g opacity="1" transform="rotate(0 595.6535 323.8774)">
<svg width="18.4" height="22.4491" x="595.6535" y="323.8774" version="1.1" preserveAspectRatio="none" viewBox="0 0 18.4 22.4491">
  <defs><rect x="0" y="0" width="18.4" height="22.4491" rx="0%" ry="0%" id="id-LQwiliU0y9"></rect></defs><use class="aLQwiliU0y9fillColor aLQwiliU0y9strokeColor-str" style="stroke-width:0;" xlink:href="#id-LQwiliU0y9"></use>
</svg>
</g><g opacity="1" transform="rotate(0 614.0535 323.8774)">
<svg width="18.4" height="22.4491" x="614.0535" y="323.8774" version="1.1" preserveAspectRatio="none" viewBox="0 0 18.4 22.4491">
  <defs><rect x="0" y="0" width="18.4" height="22.4491" rx="0%" ry="0%" id="id-a2SnWePlI-Y"></rect></defs><use class="aa2SnWePlI-YfillColor aa2SnWePlI-YstrokeColor-str" style="stroke-width:0;" xlink:href="#id-a2SnWePlI-Y"></use>
</svg>
</g><g opacity="1" transform="rotate(0 628.1533 323.8774)">
<svg width="30" height="22.4491" x="628.1533" y="323.8774" version="1.1" preserveAspectRatio="none" viewBox="0 0 30 22.4491">
  <defs><rect x="0" y="0" width="30" height="22.4491" rx="0%" ry="0%" id="id-RMlbTD6QMY"></rect></defs><use class="aRMlbTD6QMYfillColor aRMlbTD6QMYstrokeColor-str" style="stroke-width:0;" xlink:href="#id-RMlbTD6QMY"></use>
</svg>
</g><g opacity="1" transform="rotate(0 657.5533 323.8774)">
<svg width="20" height="22.4491" x="657.5533" y="323.8774" version="1.1" preserveAspectRatio="none" viewBox="0 0 20 22.4491">
  <defs><rect x="0" y="0" width="20" height="22.4491" rx="0%" ry="0%" id="id-FIEBR11Fh5"></rect></defs><use class="aFIEBR11Fh5fillColor aFIEBR11Fh5strokeColor-str" style="stroke-width:0;" xlink:href="#id-FIEBR11Fh5"></use>
</svg>
</g><g opacity="1" transform="rotate(0 632.0244 329.41)">
<svg width="22.2578" height="11.3839" x="632.0244" y="329.41" version="1.1" preserveAspectRatio="none" viewBox="13 55.5 174 89">
  <g transform="matrix(1 0 0 1 0 0)"><g><path d="M142.4 55.5l-21.2 21.1L100 55.5 78.8 76.7 57.6 55.5 13 100l44.6 44.5 21.2-21.1 21.2 21.1 21.2-21.1 21.2 21.1L187 100l-44.6-44.5zM100 59.8l19.1 19-19.1 19-19.1-19 19.1-19zm-42.4 80.4L17.2 100l40.3-40.2 19.1 19L55.4 100l21.3 21.2-19.1 19zm2.1-40.2l19.2-19.1 19.1 19-.1.1.1.1-19.1 19L59.7 100zm40.3 40.2l-19.1-19 19.1-19 19.1 19-19.1 19zm2.1-40.1v-.2l19.1-19 19.2 19.1-19.2 19.1-19.1-19zm21.2 21.1l21.3-21.2-21.3-21.2 19.1-19 40.3 40.2-40.3 40.2-19.1-19z" data-color="1" class="aa1QxcCk4-Scolors-0"></path></g></g>
</svg>
</g></svg>